<?xml version="1.0" encoding="utf-8"?>

<!-- Uploaded to: SVG Repo, www.svgrepo.com, Generator: SVG Repo Mixer Tools -->
<svg version="1.1" id="Icons" xmlns="http://www.w3.org/2000/svg" xmlns:xlink="http://www.w3.org/1999/xlink" 
	 viewBox="0 0 32 32" xml:space="preserve">
<style type="text/css">
	.st0{fill:none;stroke:#000000;stroke-width:2;stroke-linecap:round;stroke-linejoin:round;stroke-miterlimit:10;}
</style>
<polygon points="20,2.6 20,8 25.4,8 "/>
<path d="M23.5,10H19c-0.6,0-1-0.4-1-1V2H7C6.4,2,6,2.4,6,3v26c0,0.6,0.4,1,1,1h18c0.6,0,1-0.4,1-1V12.5C26,11.1,24.9,10,23.5,10z
	 M14,20c0,0.6-0.4,1-1,1s-1-0.4-1-1c-0.6,0-1-0.4-1-1s0.4-1,1-1h1.5c0.3,0,0.5-0.2,0.5-0.5S13.8,17,13.5,17h-1
	c-1.4,0-2.5-1.1-2.5-2.5c0-1.2,0.9-2.2,2-2.4V12c0-0.6,0.4-1,1-1s1,0.4,1,1c0.6,0,1,0.4,1,1s-0.4,1-1,1h-1.5c-0.3,0-0.5,0.2-0.5,0.5
	s0.2,0.5,0.5,0.5h1c1.4,0,2.5,1.1,2.5,2.5C16,18.7,15.1,19.7,14,20L14,20z M21,23h-5c-0.6,0-1-0.4-1-1s0.4-1,1-1h5c0.6,0,1,0.4,1,1
	S21.6,23,21,23z M21,19h-3c-0.6,0-1-0.4-1-1s0.4-1,1-1h3c0.6,0,1,0.4,1,1S21.6,19,21,19z M21,15h-3c-0.6,0-1-0.4-1-1s0.4-1,1-1h3
	c0.6,0,1,0.4,1,1S21.6,15,21,15z"/>
</svg>